HIERARCHY
ROOT Hip
{
	OFFSET	0.0000	0.0000	0.0000
	CHANNELS 6 Xposition Yposition Zposition Xrotation Yrotation Zrotation
	JOINT LowerSpine
	{
		OFFSET	0.0000	8.3453	-5.1292
		CHANNELS 3 Xrotation Yrotation Zrotation
		JOINT MiddleSpine
		{
			OFFSET	10.8569	0.0000	0.0000
			CHANNELS 3 Xrotation Yrotation Zrotation
			JOINT Chest
			{
				OFFSET	15.2984	0.0000	0.0000
				CHANNELS 3 Xrotation Yrotation Zrotation
				JOINT Neck
				{
					OFFSET	25.6618	-0.5986	0.0000
					CHANNELS 3 Xrotation Yrotation Zrotation
					JOINT Head
					{
						OFFSET	8.8829	0.0000	0.0000
						CHANNELS 3 Xrotation Yrotation Zrotation
						End Site
						{
							OFFSET	19.7399	0.0000	0.0000
						}
					}
				}
				JOINT RClavicle
				{
					OFFSET	23.6878	0.0000	3.1584
					CHANNELS 3 Xrotation Yrotation Zrotation
					JOINT RShoulder
					{
						OFFSET	-15.5945	-3.9480	0.9870
						CHANNELS 3 Xrotation Yrotation Zrotation
						JOINT RForearm
						{
							OFFSET	-31.3370	0.0000	0.1974
							CHANNELS 3 Xrotation Yrotation Zrotation
							JOINT RHand
							{
								OFFSET	-26.4021	0.0000	0.0000
								CHANNELS 3 Xrotation Yrotation Zrotation
								End Site
								{
									OFFSET	-15.7919	-0.9870	0.0000
								}
							}
						}
					}
				}
				JOINT LClavicle
				{
					OFFSET	23.6878	0.0000	-3.1584
					CHANNELS 3 Xrotation Yrotation Zrotation
					JOINT LShoulder
					{
						OFFSET	-15.5945	-3.9480	-0.9870
						CHANNELS 3 Xrotation Yrotation Zrotation
						JOINT LForearm
						{
							OFFSET	-31.3370	0.0000	-0.1974
							CHANNELS 3 Xrotation Yrotation Zrotation
							JOINT LHand
							{
								OFFSET	-26.4021	0.0000	0.0000
								CHANNELS 3 Xrotation Yrotation Zrotation
								End Site
								{
									OFFSET	-15.7919	-0.9870	0.0000
								}
							}
						}
					}
				}
			}
		}
	}
	JOINT RThigh
	{
		OFFSET	-8.8829	0.4481	0.0000
		CHANNELS 3 Xrotation Yrotation Zrotation
		JOINT RShin
		{
			OFFSET	43.1316	0.0000	-0.4935
			CHANNELS 3 Xrotation Yrotation Zrotation
			JOINT RFoot
			{
				OFFSET	0.0000	-44.7256	-0.4047
				CHANNELS 3 Xrotation Yrotation Zrotation
				JOINT RToe
				{
					OFFSET	0.0000	-3.9332	12.1953
					CHANNELS 3 Xrotation Yrotation Zrotation
					End Site
					{
						OFFSET	6.7725	0.0000	0.0000
					}
				}
			}
		}
	}
	JOINT LThigh
	{
		OFFSET	8.8829	0.4481	0.0000
		CHANNELS 3 Xrotation Yrotation Zrotation
		JOINT LShin
		{
			OFFSET	43.1316	0.0000	0.4935
			CHANNELS 3 Xrotation Yrotation Zrotation
			JOINT LFoot
			{
				OFFSET	0.0000	-44.7256	0.4047
				CHANNELS 3 Xrotation Yrotation Zrotation
				JOINT LToe
				{
					OFFSET	0.0000	-3.9332	-12.1953
					CHANNELS 3 Xrotation Yrotation Zrotation
					End Site
					{
						OFFSET	6.7725	0.0000	0.0000
					}
				}
			}
		}
	}
}
MOTION
Frames:	13
Frame Time: 0.0169491000
	0.0000	93.1363	0.0000	0.000000	0.000000	0.000000	-89.999990	-90.000000	0.000000	0.000000	0.000000	0.000000	0.000000	0.000000	0.000000	0.000000	0.000000	0.000000	0.000000	0.000000	0.000000	89.999990	0.000003	-89.999990	0.129889	-2.857029	4.156837	0.255388	4.965908	-5.884634	0.000000	0.000000	0.000000	-89.999990	-0.000003	-89.999990	-0.129889	2.857029	4.156894	-0.255388	-4.965908	-5.884634	0.000000	0.000000	0.000000	-89.999990	90.000000	0.000000	89.999990	-0.000003	89.999990	0.000000	0.000000	0.000000	180.000000	90.000000	0.000000	-89.999990	90.000000	0.000000	-90.000000	-0.000003	89.999990	0.000000	0.000000	0.000000	180.000000	-90.000000	0.000000
	10.1168	92.7201	4.2967	-5.123912	-1.921331	-1.199455	-89.999990	-90.000000	0.000000	0.565911	-0.171738	0.074035	1.887628	-0.568890	0.252608	0.000000	0.000000	0.000000	0.000000	0.000000	0.000000	90.014220	-0.606613	-81.843110	-15.049780	-9.351344	30.555030	3.742218	34.177830	-7.092020	0.000000	0.000000	0.000000	-89.999980	0.406799	-84.534120	11.217730	7.819941	48.739620	-1.566172	-17.204960	-6.138116	0.000000	0.000000	0.000000	-19.857050	86.501410	-59.665890	89.977130	2.547762	89.997900	-7.778807	-0.835591	-0.373620	179.977200	90.000000	0.000000	28.636980	88.981830	-109.653300	-89.953060	-5.232326	89.996800	8.817923	0.629375	-0.271994	180.000000	-90.000000	0.000000
	10.2766	92.5669	4.5118	-4.946715	-2.580241	-0.816472	-89.999990	-90.000000	0.000000	0.413135	-0.127333	0.062750	1.375519	-0.422327	0.211728	0.000000	0.000000	0.000000	0.000000	0.000000	0.000000	90.014360	-0.608092	-81.823210	-10.708170	-7.133106	33.894660	3.647745	33.544910	-7.039381	0.000000	0.000000	0.000000	-89.999500	0.396407	-84.673820	-0.250004	-2.760337	51.498050	-1.797321	-19.234640	-6.210400	0.000000	0.000000	0.000000	-31.297950	87.619640	-47.970330	89.978870	2.353347	89.998020	-7.900510	-0.107147	-0.046109	179.928400	90.000000	0.000000	81.547670	89.174470	-161.606500	-89.967410	-3.631255	89.997320	8.610463	1.598168	-0.782370	180.000000	-90.000000	0.000000
	10.4676	92.4660	4.8147	-4.987290	-2.761116	-0.515801	-89.999990	-90.000000	0.000000	0.286498	-0.093374	0.052881	0.951488	-0.310368	0.176486	0.000000	0.000000	0.000000	0.000000	0.000000	0.000000	90.014770	-0.612328	-81.766060	-5.792487	-4.410590	36.420810	3.521524	32.684490	-6.970422	0.000000	0.000000	0.000000	-89.999420	0.394659	-84.697280	-10.353530	-13.740350	51.848730	-1.861577	-19.790250	-6.231862	0.000000	0.000000	0.000000	-44.359530	88.215900	-34.340070	89.982680	1.927526	89.998310	-7.967975	0.061537	0.033551	179.830000	90.000000	0.000000	109.771200	88.871600	170.916400	-89.974910	-2.796165	89.997760	8.666034	2.356899	-1.191833	180.000000	-90.000000	0.000000
	10.6289	92.4292	5.0403	-5.153658	-2.402943	-0.354127	-89.999990	-90.000000	0.000000	0.192501	-0.072207	0.044713	0.638934	-0.241087	0.147377	0.000000	0.000000	0.000000	0.000000	0.000000	0.000000	90.015470	-0.619659	-81.667090	-2.126471	-2.509335	38.693180	3.364048	31.587110	-6.886652	0.000000	0.000000	0.000000	-89.999840	0.403716	-84.575500	-16.037860	-20.779650	51.760990	-1.774266	-19.034350	-6.202843	0.000000	0.000000	0.000000	-50.945380	88.364730	-27.250950	89.984720	1.700611	89.998490	-7.943678	-0.337825	-0.128323	179.696400	90.000000	0.000000	116.574200	88.737240	164.343900	-89.973690	-2.931701	89.997680	8.822497	2.252565	-1.141626	180.074100	-90.000000	0.000000
	10.7476	92.4239	5.1442	-5.287113	-2.117287	-0.251946	-89.999990	-90.000000	0.000000	0.122025	-0.059612	0.037566	0.407924	-0.200050	0.122640	0.000000	0.000000	0.000000	0.000000	0.000000	0.000000	90.016350	-0.628425	-81.548790	-0.177832	-1.360795	41.463630	3.203192	30.438650	-6.803770	0.000000	0.000000	0.000000	-90.000660	0.420452	-84.350400	-17.062810	-23.338620	53.419830	-1.661023	-18.043580	-6.166836	0.000000	0.000000	0.000000	-51.926750	88.457870	-26.047430	89.984240	1.754143	89.998440	-7.988676	-0.553452	-0.197587	179.687500	90.000000	0.000000	117.563300	88.695030	163.450800	-89.972500	-3.065048	89.997600	8.641455	1.456291	-0.710064	180.296200	-90.000000	0.000000
	10.8058	92.4365	5.2259	-5.395056	-2.065170	-0.232494	-89.999990	-90.000000	0.000000	0.073508	-0.052813	0.031441	0.247712	-0.176092	0.104220	0.000000	0.000000	0.000000	0.000000	0.000000	0.000000	90.017060	-0.635453	-81.453900	1.270706	-0.590258	44.626400	3.131963	29.921200	-6.767961	0.000000	0.000000	0.000000	-90.001730	0.440563	-84.079880	-16.088560	-23.181360	56.290740	-1.570134	-17.240130	-6.139290	0.000000	0.000000	0.000000	-52.739780	88.526170	-24.997240	89.985340	1.631876	89.998540	-7.977587	-0.451592	-0.135478	179.827600	90.000000	0.000000	119.122100	88.739170	162.201200	-89.975500	-2.729524	89.997800	8.330126	0.385013	-0.155981	180.444600	-90.000000	0.000000
	10.8093	92.4470	5.2987	-5.497908	-1.756840	-0.305142	-89.999990	-90.000000	0.000000	0.046375	-0.049761	0.027087	0.146627	-0.160466	0.098029	0.000000	0.000000	0.000000	0.000000	0.000000	0.000000	90.017290	-0.637696	-81.423590	2.909994	-0.292626	47.753510	3.160411	30.128520	-6.782195	0.000000	0.000000	0.000000	-90.002880	0.460383	-83.813220	-15.174170	-23.964960	58.762810	-1.392241	-15.647290	-6.088929	0.000000	0.000000	0.000000	-55.647210	88.433650	-21.735220	89.988660	1.261471	89.998840	-7.805364	-0.564525	-0.183764	179.933800	90.000000	0.000000	123.974600	88.908040	157.677100	-89.979210	-2.315901	89.998050	8.326280	-0.473672	0.269747	180.296700	-90.000000	0.000000
	10.8110	92.4329	5.2998	-5.540918	-1.190762	-0.361270	-89.999990	-90.000000	0.000000	0.024389	-0.048087	0.022306	0.092489	-0.149317	0.114806	0.000000	0.000000	0.000000	0.000000	0.000000	0.000000	90.016910	-0.633997	-81.473570	4.560819	-0.233666	50.691780	3.134695	29.941140	-6.769324	0.000000	0.000000	0.000000	-90.003920	0.477014	-83.589390	-15.293870	-27.598040	60.219680	-1.083488	-12.823770	-6.012980	0.000000	0.000000	0.000000	-58.231320	88.279460	-18.946240	89.990890	1.011812	89.999050	-7.687088	-0.902360	-0.343682	179.907500	90.000000	0.000000	128.680700	89.042210	153.057100	-89.980810	-2.138827	89.998180	8.440373	-0.635655	0.362866	180.075400	-90.000000	0.000000
	10.8304	92.4035	5.2518	-5.508912	-0.900408	-0.364766	-89.999990	-90.000000	0.000000	0.019725	-0.043280	0.043973	0.074204	-0.144460	0.166162	0.000000	0.000000	0.000000	0.000000	0.000000	0.000000	90.016050	-0.625523	-81.587920	5.977174	0.327328	53.684850	2.980536	28.802920	-6.693707	0.000000	0.000000	0.000000	-90.004630	0.487896	-83.442920	-15.871710	-31.634440	61.582470	-0.818024	-10.343590	-5.959662	0.000000	0.000000	0.000000	-59.272880	88.221370	-17.942820	89.991000	1.000444	89.999060	-7.694055	-0.993347	-0.407976	179.763900	90.000000	0.000000	129.160200	89.055690	152.437800	-89.979930	-2.236146	89.998110	8.491199	-0.308444	0.228616	180.003800	-90.000000	0.000000
	10.8640	92.3733	5.2077	-5.419203	-0.944735	-0.346546	-89.999990	-90.000000	0.000000	0.025768	-0.044605	0.086438	0.081224	-0.150154	0.256743	0.000000	0.000000	0.000000	0.000000	0.000000	0.000000	90.014990	-0.614618	-81.735120	7.202367	1.435956	56.859710	2.802554	27.456990	-6.609788	0.000000	0.000000	0.000000	-90.004820	0.490724	-83.404880	-15.727270	-34.139930	63.800640	-0.682320	-9.059741	-5.936792	0.000000	0.000000	0.000000	-59.142080	88.262690	-18.236290	89.990230	1.084760	89.999000	-7.745495	-0.797841	-0.344316	179.622500	90.000000	0.000000	127.314800	89.000590	154.028800	-89.977460	-2.512111	89.997920	8.692597	-0.028639	0.100628	180.005500	-90.000000	0.000000
	10.9094	92.3508	5.1467	-5.257781	-1.020824	-0.317278	-89.999990	-90.000000	0.000000	0.030856	-0.048901	0.112787	0.102338	-0.167336	0.378384	0.000000	0.000000	0.000000	0.000000	0.000000	0.000000	90.013900	-0.603287	-81.887980	8.265409	2.797197	60.104820	2.652064	26.292480	-6.541758	0.000000	0.000000	0.000000	-90.004380	0.484213	-83.492580	-15.273120	-35.755040	66.247190	-0.656760	-8.816846	-5.932822	0.000000	0.000000	0.000000	-58.595290	88.334750	-19.067170	89.988750	1.250324	89.998860	-7.874344	-0.603070	-0.271792	179.656700	90.000000	0.000000	125.289400	88.932720	155.720300	-89.974870	-2.801916	89.997750	9.062837	0.085020	0.028943	180.003700	-90.000000	0.000000
	10.9489	92.3470	5.0675	-5.070277	-1.236338	-0.278798	-89.999990	-90.000000	0.000000	0.038043	-0.056413	0.149910	0.125608	-0.189546	0.510905	0.000000	0.000000	0.000000	0.000000	0.000000	0.000000	90.012920	-0.592559	-82.032740	9.038600	4.452210	63.187940	2.471679	24.865010	-6.463870	0.000000	0.000000	0.000000	-90.003410	0.469077	-83.696240	-15.296990	-36.572460	68.197320	-0.816915	-10.333140	-5.959465	0.000000	0.000000	0.000000	-57.494510	88.437010	-20.563540	89.986150	1.539484	89.998640	-8.116739	-0.407229	-0.192859	179.809400	90.000000	0.000000	122.612800	88.838440	158.159500	-89.974460	-2.847523	89.997730	9.241942	0.307669	-0.111972	180.001000	-90.000000	0.000000
